{
	"patcher" : 	{
		"fileversion" : 1,
		"rect" : [ 25.0, 69.0, 640.0, 480.0 ],
		"bglocked" : 0,
		"defrect" : [ 25.0, 69.0, 640.0, 480.0 ],
		"openrect" : [ 0.0, 0.0, 0.0, 0.0 ],
		"openinpresentation" : 0,
		"default_fontsize" : 9.0,
		"default_fontface" : 0,
		"default_fontname" : "Monaco",
		"gridonopen" : 0,
		"gridsize" : [ 15.0, 15.0 ],
		"gridsnaponopen" : 0,
		"toolbarvisible" : 1,
		"boxanimatetime" : 200,
		"imprint" : 0,
		"enablehscroll" : 1,
		"enablevscroll" : 1,
		"devicewidth" : 0.0,
		"boxes" : [ 			{
				"box" : 				{
					"maxclass" : "message",
					"text" : "plane 2, 255 255 255 255 255 255 255",
					"numoutlets" : 1,
					"outlettype" : [ "" ],
					"fontname" : "Monaco",
					"patching_rect" : [ 427.0, 52.0, 205.0, 17.0 ],
					"id" : "obj-18",
					"numinlets" : 2,
					"fontsize" : 9.0
				}

			}
, 			{
				"box" : 				{
					"maxclass" : "newobj",
					"text" : "jit.fill p5 1",
					"numoutlets" : 2,
					"outlettype" : [ "", "" ],
					"fontname" : "Monaco",
					"patching_rect" : [ 411.0, 143.0, 81.0, 19.0 ],
					"id" : "obj-16",
					"numinlets" : 1,
					"fontsize" : 9.0
				}

			}
, 			{
				"box" : 				{
					"maxclass" : "newobj",
					"text" : "jit.fill",
					"numoutlets" : 2,
					"outlettype" : [ "", "" ],
					"fontname" : "Monaco",
					"patching_rect" : [ 488.0, 173.0, 54.0, 19.0 ],
					"id" : "obj-15",
					"numinlets" : 1,
					"fontsize" : 9.0
				}

			}
, 			{
				"box" : 				{
					"maxclass" : "newobj",
					"text" : "print",
					"numoutlets" : 0,
					"fontname" : "Monaco",
					"patching_rect" : [ 317.0, 141.0, 38.0, 19.0 ],
					"id" : "obj-14",
					"numinlets" : 1,
					"fontsize" : 9.0
				}

			}
, 			{
				"box" : 				{
					"maxclass" : "jit.pwindow",
					"numoutlets" : 2,
					"outlettype" : [ "", "" ],
					"patching_rect" : [ 239.0, 203.0, 100.0, 100.0 ],
					"id" : "obj-13",
					"numinlets" : 1
				}

			}
, 			{
				"box" : 				{
					"maxclass" : "newobj",
					"text" : "r clock",
					"numoutlets" : 1,
					"outlettype" : [ "" ],
					"fontname" : "Monaco",
					"patching_rect" : [ 187.0, 141.0, 48.0, 19.0 ],
					"id" : "obj-11",
					"numinlets" : 0,
					"fontsize" : 9.0
				}

			}
, 			{
				"box" : 				{
					"maxclass" : "toggle",
					"numoutlets" : 1,
					"outlettype" : [ "int" ],
					"patching_rect" : [ 86.0, 52.0, 20.0, 20.0 ],
					"id" : "obj-10",
					"numinlets" : 1
				}

			}
, 			{
				"box" : 				{
					"maxclass" : "newobj",
					"text" : "qmetro 33",
					"numoutlets" : 1,
					"outlettype" : [ "bang" ],
					"fontname" : "Monaco",
					"patching_rect" : [ 86.0, 78.0, 59.0, 19.0 ],
					"id" : "obj-8",
					"numinlets" : 2,
					"fontsize" : 9.0
				}

			}
, 			{
				"box" : 				{
					"maxclass" : "newobj",
					"text" : "s clock",
					"numoutlets" : 0,
					"fontname" : "Monaco",
					"patching_rect" : [ 86.0, 127.0, 48.0, 19.0 ],
					"id" : "obj-5",
					"numinlets" : 1,
					"fontsize" : 9.0
				}

			}
, 			{
				"box" : 				{
					"maxclass" : "newobj",
					"text" : "route /pixel",
					"numoutlets" : 2,
					"outlettype" : [ "", "" ],
					"fontname" : "Monaco",
					"patching_rect" : [ 239.0, 141.0, 75.0, 19.0 ],
					"id" : "obj-4",
					"numinlets" : 1,
					"fontsize" : 9.0
				}

			}
, 			{
				"box" : 				{
					"maxclass" : "newobj",
					"text" : "udpreceive 8888",
					"numoutlets" : 1,
					"outlettype" : [ "" ],
					"fontname" : "Monaco",
					"patching_rect" : [ 239.0, 116.0, 92.0, 19.0 ],
					"id" : "obj-2",
					"numinlets" : 1,
					"fontsize" : 9.0
				}

			}
, 			{
				"box" : 				{
					"maxclass" : "newobj",
					"text" : "jit.matrix p5 4 char 100 100",
					"numoutlets" : 2,
					"outlettype" : [ "jit_matrix", "" ],
					"fontname" : "Monaco",
					"patching_rect" : [ 239.0, 173.0, 162.0, 19.0 ],
					"id" : "obj-1",
					"numinlets" : 1,
					"fontsize" : 9.0
				}

			}
 ],
		"lines" : [ 			{
				"patchline" : 				{
					"source" : [ "obj-16", 0 ],
					"destination" : [ "obj-1", 0 ],
					"hidden" : 0,
					"midpoints" : [  ]
				}

			}
, 			{
				"patchline" : 				{
					"source" : [ "obj-18", 0 ],
					"destination" : [ "obj-16", 0 ],
					"hidden" : 0,
					"midpoints" : [  ]
				}

			}
, 			{
				"patchline" : 				{
					"source" : [ "obj-4", 0 ],
					"destination" : [ "obj-1", 0 ],
					"hidden" : 0,
					"midpoints" : [  ]
				}

			}
, 			{
				"patchline" : 				{
					"source" : [ "obj-11", 0 ],
					"destination" : [ "obj-1", 0 ],
					"hidden" : 0,
					"midpoints" : [  ]
				}

			}
, 			{
				"patchline" : 				{
					"source" : [ "obj-1", 0 ],
					"destination" : [ "obj-13", 0 ],
					"hidden" : 0,
					"midpoints" : [  ]
				}

			}
, 			{
				"patchline" : 				{
					"source" : [ "obj-2", 0 ],
					"destination" : [ "obj-14", 0 ],
					"hidden" : 0,
					"midpoints" : [  ]
				}

			}
, 			{
				"patchline" : 				{
					"source" : [ "obj-8", 0 ],
					"destination" : [ "obj-5", 0 ],
					"hidden" : 0,
					"midpoints" : [  ]
				}

			}
, 			{
				"patchline" : 				{
					"source" : [ "obj-10", 0 ],
					"destination" : [ "obj-8", 0 ],
					"hidden" : 0,
					"midpoints" : [  ]
				}

			}
, 			{
				"patchline" : 				{
					"source" : [ "obj-2", 0 ],
					"destination" : [ "obj-4", 0 ],
					"hidden" : 0,
					"midpoints" : [  ]
				}

			}
 ]
	}

}
